# xmcd
#
# Track frame offsets:
#	150
#	12919
#	23229
#	33620
#	44562
#	56195
#	67569
#	81922
#	94983
#	106081
#	120388
#	134231
#	149832
#	161144
#	174268
#	190523
#	203596
#	218083
#	228296
#	238534
#	249038
#	262034
#	275297
#	283908
#	295720
#	306679
#	319593
#	331817
#	341849
#	353936
#	366181
#	377426
#
# Disc length: 5167 seconds
#
# Revision: 1
# Processed by: cddbd v1.5.2PL0 Copyright (c) Steve Scherf et al.
# Submitted via: EZCDAudioConverter 7.1.4.1
#
DISCID=e4142d20
DTITLE=Connie Smith - Just for What I am [CD3]
DYEAR=2012
DGENRE=USA Country
TTITLE0=Connie Smith - You and Your Sweet Love
TTITLE1=Connie Smith - I'm So Glad
TTITLE2=Connie Smith and Nat Stuckey - Sunday Morning
TTITLE3=Connie Smith and Nat Stuckey - Daddy Sang Bass
TTITLE4=Connie Smith and Nat Stuckey - Way Up on the Mountain
TTITLE5=Connie Smith and Nat Stuckey - His Love Takes Care of Me
TTITLE6=Connie Smith and Nat Stuckey - He Turned the Water Into Wine
TTITLE7=Connie Smith and Nat Stuckey - If God is Dead (Who's That Living in My S
TTITLE7=oul)
TTITLE8=Connie Smith and Nat Stuckey - God Will
TTITLE9=Connie Smith and Nat Stuckey - Now Lord, What Can I Do for You
TTITLE10=Connie Smith and Nat Stuckey - Well, it's All Right
TTITLE11=Connie Smith and Nat Stuckey - Crumbs From the Table
TTITLE12=Connie Smith and Nat Stuckey - Did You Let Your Light Shine
TTITLE13=Connie Smith - I Never Once Stopped Loving You
TTITLE14=Connie Smith - The Son Shines Down on Me
TTITLE15=Connie Smith - (I'm So) Afraid of Losing You Again
TTITLE16=Connie Smith - Thank You for Loving Me
TTITLE17=Connie Smith - This Precious Love (We Know)
TTITLE18=Connie Smith - I Love You More and More Every Day
TTITLE19=Connie Smith - I'll Fly Away
TTITLE20=Connie Smith - Think I'll Go Somewhere (And Cry Myself to Sleep)
TTITLE21=Connie Smith - If My Heart Had Windows
TTITLE22=Connie Smith - Alone with You
TTITLE23=Connie Smith - Love Has a Mind of Its Own
TTITLE24=Connie Smith - Louisiana Man
TTITLE25=Connie Smith - There's Something Lonely in This House
TTITLE26=Connie Smith - Clinging to a Saving Hand
TTITLE27=Connie Smith - Too Good to Be True
TTITLE28=Connie Smith - Where is My Castle
TTITLE29=Connie Smith - Before I'm Over You
TTITLE30=Connie Smith - Hello Darlin'
TTITLE31=Connie Smith - I Don't Want Your Memories (I Just Want You)
EXTD=
EXTT0=
EXTT1=
EXTT2=
EXTT3=
EXTT4=
EXTT5=
EXTT6=
EXTT7=
EXTT8=
EXTT9=
EXTT10=
EXTT11=
EXTT12=
EXTT13=
EXTT14=
EXTT15=
EXTT16=
EXTT17=
EXTT18=
EXTT19=
EXTT20=
EXTT21=
EXTT22=
EXTT23=
EXTT24=
EXTT25=
EXTT26=
EXTT27=
EXTT28=
EXTT29=
EXTT30=
EXTT31=
PLAYORDER=
